<svg id="Layer_1" data-name="Layer 1" xmlns="http://www.w3.org/2000/svg" viewBox="0 0 500 219.4"><defs><style>.cls-1{fill:#fff;}</style></defs><path class="cls-1" d="M188.21,134.7c0,9.08,2.33,12.34,5.83,12.34,5.12,0,10-11.65,14.9-22.36.93-1.86,1.4-2.79,2.56-2.79a1.1,1.1,0,0,1,1.17,1.16,19.12,19.12,0,0,1-1.4,4.66c-4.42,9.78-11,29.58-24.92,29.58-7.92,0-13.28-6.76-13.28-19.8v-33.3c0-6.53,7.92-14.91,15.38-14.91a1.34,1.34,0,0,1,1.39,1.4c0,1.63-1.63,3.72-1.63,8.85Zm-2.56-77.56a6,6,0,0,1,6.29,6.29c0,5.82-4.89,11.41-9.55,11.41-4.43,0-7.22-2.56-7.22-6.76C175.17,62.73,180.29,57.14,185.65,57.14Z"/><path class="cls-1" d="M224.08,116.76C227.57,105.35,237.82,90,249.93,90c10,0,15.37,6.29,15.37,18.86v7.69c4-10.71,13.28-26.55,26.56-26.55,10.24,0,14.67,7,14.67,19.56V134.7c0,9.08,1.63,12.34,5.82,12.34,4.66,0,8.85-7.69,15.61-22.36.23-.7.93-2.79,2.33-2.79a1.1,1.1,0,0,1,1.16,1.16c0,.93-.23,2.1-1.4,4.66-4.42,9.78-10.94,29.58-25.38,29.58-10.25,0-13.28-6.76-13.28-19.8V111.64c0-6.52-1.16-11-6.29-11-8.38,0-19.8,21.66-19.8,36.1v6.52c0,5.83-6.05,10.25-9.08,12.12a15.86,15.86,0,0,1-6.52,2.32c-.93,0-1.63-.23-1.63-1.16s.93-2.1,1.63-4.66.7-12.11.7-12.11V111.17c0-6.75-2.33-10.48-6.76-10.48-9.08,0-19.56,22.13-19.56,34.47v8.15c0,5.83-5.82,10-9.32,12.12a13.91,13.91,0,0,1-6.52,2.32c-.7,0-1.4-.23-1.4-1.16s.7-2.1,1.4-4.66.7-12.11.7-12.11V104.19c0-7,7.69-14.91,15.37-14.91a1.34,1.34,0,0,1,1.4,1.4c0,1.63-1.63,3.72-1.63,8.85Z"/><path class="cls-1" d="M384.32,108.84V134.7c0,9.08,1.86,12.34,5.82,12.34,5.36,0,10.25-10.48,15.61-22.36.93-1.86,1.16-2.79,2.32-2.79.94,0,1.4.46,1.4,1.16a13.89,13.89,0,0,1-1.63,4.66c-4.19,9.78-10.94,29.58-25.39,29.58-10,0-13-6.76-13-19.8V111.17c0-6.75-1.16-10.48-6.29-10.48-6.29,0-14.9,14.44-17.47,22.36a66.56,66.56,0,0,0-3,20c0,5.82-4.66,10-10.25,13a10.21,10.21,0,0,1-5.36,1.63c-.7,0-1.16-.23-1.16-1.16s.7-2.1,1.4-4.66c.69-3,.69-20,.69-28.88,0-27.95,0-49.38,2.33-72,3.26-30.74,11.88-38.2,22.83-38.2,7.92,0,12.11,7.69,12.11,20.27,0,28.41-9.55,48.68-22.13,71.73v12.58C346.59,107.21,358,90,369.88,90,380.13,90,384.32,96.27,384.32,108.84ZM343.09,96C352.41,79,361,58.53,361,33.15c0-9.55-1.87-12.35-5.13-12.35-4.89,0-8.15,9.55-10.48,32.61A367.76,367.76,0,0,0,343.09,96Z"/><path class="cls-1" d="M469.56,148.2c7,0,11.41-11.64,16.77-23.52.93-1.86,1.17-2.79,2.33-2.79.93,0,1.4.46,1.4,1.16a13.89,13.89,0,0,1-1.63,4.66c-4,9.08-10.72,29.58-24.69,29.58s-15.61-10.95-15.61-24c-3,8.38-9.78,24-23.75,24-10.48,0-18.64-9.09-18.64-26.09,0-27.71,17.94-41,31-41,10.48,0,13.74,4.43,16.3,9.08.94-4.65,4.66-7.22,8.16-8.61a20.21,20.21,0,0,1,5.35-1.4,1.23,1.23,0,0,1,1.4,1.4c0,.93-.46,2.09-1.4,4.65-2.33,7.46-2.79,19.34-2.79,28.65C463.74,143.31,464.67,148.2,469.56,148.2Zm-45.88-18.4c0,10.25,2.79,17,8.85,17,7.92,0,17-27.49,17-40.06,0-6.52-4-11.18-10.25-11.18C431.13,95.57,423.68,108.14,423.68,129.8Z"/><path class="cls-1" d="M176.07,173.06h2.08v21.13h-2.08Z"/><path class="cls-1" d="M184.28,173.06h2l10.79,15.2c.73,1.06,1.75,2.86,1.75,2.86h.06s-.18-1.74-.18-2.86v-15.2h2.07v21.13h-2L188,179c-.73-1.06-1.75-2.86-1.75-2.86h-.06s.18,1.75.18,2.86v15.21h-2.07Z"/><path class="cls-1" d="M206.92,173.06h2l10.79,15.2c.73,1.06,1.75,2.86,1.75,2.86h.06s-.18-1.74-.18-2.86v-15.2h2.07v21.13h-2L210.62,179c-.73-1.06-1.75-2.86-1.75-2.86h-.06s.18,1.75.18,2.86v15.21h-2.07Z"/><path class="cls-1" d="M238.88,172.69a10.68,10.68,0,0,1,10.76,10.8,10.77,10.77,0,1,1-21.53,0A10.69,10.69,0,0,1,238.88,172.69Zm0,19.93c4.74,0,8.59-4,8.59-9.13a8.6,8.6,0,1,0-17.19,0C230.28,188.66,234.1,192.62,238.88,192.62Z"/><path class="cls-1" d="M251.63,173.06h2.22l5.86,16.05c.39,1.08.81,2.73.81,2.73h.06s.42-1.65.82-2.73l5.86-16.05h2.22l-7.84,21.13h-2.17Z"/><path class="cls-1" d="M283.34,187.45h-8.5l-2.41,6.74h-2.19L278,173.06h2.23L288,194.19h-2.19Zm-4.26-12.2s-.46,1.74-.82,2.73l-2.82,7.67h7.27L280,178c-.36-1-.82-2.73-.82-2.73Z"/><path class="cls-1" d="M296.18,174.92h-7.6v-1.86h17.25v1.86h-7.57v19.27h-2.08Z"/><path class="cls-1" d="M309.11,173.06H321v1.86h-9.82v7.69h8v1.87h-8v7.84h10.37v1.87H309.11Z"/><path class="cls-1" d="M339.12,174.92h-7.61v-1.86h17.26v1.86h-7.58v19.27h-2.07Z"/><path class="cls-1" d="M361.36,172.69a10.69,10.69,0,0,1,10.77,10.8,10.77,10.77,0,1,1-21.53,0A10.68,10.68,0,0,1,361.36,172.69Zm0,19.93a8.8,8.8,0,0,0,8.6-9.13,8.6,8.6,0,1,0-17.19,0C352.77,188.66,356.58,192.62,361.36,192.62Z"/><path class="cls-1" d="M386.05,172.69a11.38,11.38,0,0,1,7.51,2.47l-1.11,1.56a10.39,10.39,0,0,0-6.31-2.1c-5.11,0-8.57,3.94-8.57,9,0,5.2,3.58,9,8.39,9a9.21,9.21,0,0,0,6.64-3.09V186H389v-1.86h5.59v10.1h-1.92v-1.6c0-.45,0-.9,0-.9h-.06a9.43,9.43,0,0,1-6.88,2.86c-5.77,0-10.34-4.66-10.34-10.94A10.61,10.61,0,0,1,386.05,172.69Z"/><path class="cls-1" d="M399.61,173.06h11.9v1.86h-9.83v7.69h8v1.87h-8v7.84h10.37v1.87H399.61Z"/><path class="cls-1" d="M421.53,174.92h-7.61v-1.86h17.26v1.86H423.6v19.27h-2.07Z"/><path class="cls-1" d="M434.46,173.06h2.07v9.61h12.26v-9.61h2.08v21.13h-2.08v-9.65H436.53v9.65h-2.07Z"/><path class="cls-1" d="M457,173.06h11.9v1.86h-9.83v7.69h8v1.87h-8v7.84h10.37v1.87H457Z"/><path class="cls-1" d="M474.17,173.06h6.26a9.37,9.37,0,0,1,4,.57,6.15,6.15,0,0,1-.81,11.15v.06a8.21,8.21,0,0,1,.54.84l4.6,8.51h-2.37l-4.78-8.9h-5.32v8.9h-2.08Zm7.1,10.36a4.37,4.37,0,0,0,2.25-8,6.06,6.06,0,0,0-3-.51h-4.27v8.5Z"/><path class="cls-1" d="M142.8,91.05c.87,3,1.21,5.62.3,7.62a4.84,4.84,0,0,1-.55.93,5.76,5.76,0,0,1-2.28,1.74c-3.22,1.43-7.82.69-9.45.44-16.54-2.63-22-21.69-35.88-30.64-9-5.77-24.71-9.46-54.37,2.14,7-5.47,26.14-18.81,51.77-17.75,5.74.24,17.83.89,30,8.65,0,0,15.46,9.83,20.42,26.87"/><path class="cls-1" d="M10,113c.24-5.73.89-17.82,8.65-30,0,0,9.83-15.46,26.87-20.42,3.49-1,6.48-1.31,8.56.25,3.6,2.73,2.5,9.65,2.17,11.73-2.63,16.54-21.69,22-30.64,35.88-5.77,9-9.46,24.71,2.14,54.37C22.28,157.77,8.94,138.64,10,113"/><path class="cls-1" d="M71.16,195.33c-5.73-.24-17.82-.89-30-8.65,0,0-15.46-9.83-20.42-26.87-1-3.49-1.32-6.48.25-8.56,2.73-3.6,9.65-2.5,11.73-2.17,16.54,2.63,22,21.69,35.87,30.64,9,5.77,24.72,9.46,54.37-2.14-7,5.47-26.13,18.81-51.77,17.75"/><path class="cls-1" d="M153.39,139.27c-.24,5.73-.89,17.82-8.65,30,0,0-9.83,15.46-26.87,20.42-3.48,1-6.48,1.32-8.55-.25-3.6-2.73-2.5-9.65-2.17-11.73,2.63-16.54,21.69-22,30.64-35.87,4.79-7.45,8.15-19.6,2.48-40.53a5.76,5.76,0,0,0,2.28-1.74,4.84,4.84,0,0,0,.55-.93c5.44,9.63,11,23.7,10.29,40.6"/></svg>